<svg width="223" height="932" viewBox="0 0 223 932" fill="none" xmlns="http://www.w3.org/2000/svg">
<path opacity="0.05" d="M3.16802 222.912L3.16802 144.576L15.84 144.576L25.344 168.192L76.32 147.744L76.32 72.864L25.344 52.416L15.84 75.456L3.16803 75.456L3.16803 -7.77878e-06L15.84 -7.22487e-06L25.344 23.616L206.496 94.464L206.496 124.128L25.344 197.856L15.84 222.912L3.16802 222.912ZM95.904 140.256L176.832 109.728L95.904 80.352L95.904 140.256ZM3.16802 305.026L3.16802 229.282L15.552 229.282L25.056 253.474L127.872 253.474L127.872 229.282L145.152 229.282C148.8 236.77 150.624 245.218 150.624 254.626C150.624 264.034 148.608 270.562 144.576 274.21C140.544 277.858 134.592 279.874 126.72 280.258C132.48 282.178 137.664 286.114 142.272 292.066C147.84 299.17 150.624 308.578 150.624 320.29C150.624 325.474 149.952 330.37 148.608 334.978C147.264 339.778 145.92 343.234 144.576 345.346L142.56 348.802L108.576 348.802L108.576 331.522L125.856 327.778C127.008 326.626 127.584 323.458 127.584 318.274C127.584 313.09 126.816 308.098 125.28 303.298C123.936 298.498 122.208 294.754 120.096 292.066C115.488 286.69 110.784 282.85 105.984 280.546L25.056 280.546L15.552 305.026L3.16802 305.026ZM66.24 408.58C49.728 408.58 38.496 411.076 32.544 416.068C26.592 421.06 23.616 428.644 23.616 438.82C23.616 448.996 25.152 457.348 28.224 463.876L13.824 469.636C12.864 468.868 11.616 467.716 10.08 466.18C8.54401 464.836 6.43201 461.284 3.74401 455.524C1.24801 449.764 1.02771e-05 443.428 1.05793e-05 436.516C1.1343e-05 419.044 4.89601 405.508 14.688 395.908C24.672 386.308 39.168 381.508 58.176 381.508L124.416 381.508L124.416 366.244L141.408 366.244L169.056 393.892L169.056 408.58L147.168 408.58L147.168 456.964L124.416 456.964L124.416 408.58L66.24 408.58ZM3.168 608.222L3.16801 485.822L22.752 485.822L123.84 573.95L123.84 510.302L107.136 504.83L107.136 488.414L146.592 488.414L146.592 604.19L123.84 604.19L26.784 520.382L26.784 587.774L44.064 593.246L44.064 608.222L3.168 608.222ZM3.168 710.039L3.168 634.295L15.552 634.295L25.056 658.487L127.872 658.487L127.872 634.295L145.152 634.295C148.8 641.783 150.624 650.423 150.624 660.215C150.624 670.199 148.224 676.919 143.424 680.375C138.816 683.831 131.712 685.559 122.112 685.559L25.056 685.559L15.552 710.039L3.168 710.039ZM183.744 686.711C179.328 682.295 177.12 676.919 177.12 670.583C177.12 664.247 179.328 658.871 183.744 654.455C188.16 650.039 193.536 647.831 199.872 647.831C206.208 647.831 211.584 650.039 216 654.455C220.416 658.871 222.624 664.247 222.624 670.583C222.624 676.919 220.416 682.295 216 686.711C211.584 691.127 206.208 693.335 199.872 693.335C193.536 693.335 188.16 691.127 183.744 686.711ZM0.287995 804.224C0.287996 782.528 6.432 764.864 18.72 751.232C31.2 737.792 49.344 731.072 73.152 731.072C96.96 731.072 115.776 737.984 129.6 751.808C143.616 765.632 150.624 781.76 150.624 800.192C150.624 843.968 124.704 865.856 72.864 865.856L72.864 759.008L71.424 759.008C57.792 759.008 46.272 763.808 36.864 773.408C27.456 783.008 22.752 796.064 22.752 812.576C22.752 819.68 23.52 826.4 25.056 832.736C26.784 839.072 28.512 843.68 30.24 846.56L32.544 850.592L17.568 858.944C17.184 858.368 16.512 857.504 15.552 856.352C14.784 855.392 13.44 853.184 11.52 849.728C9.59999 846.272 7.87199 842.528 6.33599 838.496C2.30399 828.32 0.287994 816.896 0.287995 804.224ZM91.296 839.072C103.2 838.112 112.224 834.176 118.368 827.264C124.704 820.544 127.872 811.712 127.872 800.768C127.872 790.016 124.8 781.088 118.656 773.984C112.704 766.88 103.584 762.272 91.296 760.16L91.296 839.072ZM4.89599 926.822C1.63199 923.558 -1.05338e-05 919.526 -1.0324e-05 914.726C-1.01141e-05 909.926 1.63199 905.894 4.89599 902.63C8.15999 899.366 12.192 897.734 16.992 897.734C21.792 897.734 25.824 899.366 29.088 902.63C32.352 905.894 33.984 909.926 33.984 914.726C33.984 919.526 32.352 923.558 29.088 926.822C25.824 930.086 21.792 931.718 16.992 931.718C12.192 931.718 8.15999 930.086 4.89599 926.822Z" fill="white"/>
</svg>
